<svg width="60" height="60" viewBox="0 0 60 60" fill="none" xmlns="http://www.w3.org/2000/svg">
<g clip-path="url(#clip0_1_123)">
<path d="M60 30C60 46.5 46.5 60 30 60C13.5 60 -5.90104e-07 46.5 -1.31134e-06 30C-1.60639e-06 23.25 2.25 16.95 6.3 11.55C6.75 10.95 7.8 10.8 8.4 11.25C9 11.7 9.15 12.75 8.7 13.35C4.95 18.15 3 24 3 30C3 44.85 15.15 57 30 57C44.85 57 57 44.85 57 30C57 15.15 44.85 3 30 3C25.2 3 20.4 4.35 16.2 6.75C15.45 7.2 14.55 6.9 14.1 6.3C13.65 5.55 13.95 4.65 14.55 4.2C19.35 1.5 24.6 -1.0753e-06 30 -1.31134e-06C46.5 -2.03258e-06 60 13.5 60 30Z" fill="#ECD6BE"/>
<path d="M43.5 31.5C43.5 31.95 43.35 32.25 43.05 32.55C42.45 33.15 41.55 33.15 40.95 32.55L30 21.6L27.3 24.3C26.7 24.9 25.8 24.9 25.2 24.3C24.6 23.7 24.6 22.8 25.2 22.2L28.95 18.45C29.55 17.85 30.45 17.85 31.05 18.45L43.05 30.45C43.35 30.75 43.5 31.2 43.5 31.5Z" fill="#ECD6BE"/>
<path d="M22.5 28.5C22.5 28.95 22.35 29.25 22.05 29.55L19.05 32.55C18.45 33.15 17.55 33.15 16.95 32.55C16.35 31.95 16.35 31.05 16.95 30.45L19.95 27.45C20.55 26.85 21.45 26.85 22.05 27.45C22.35 27.75 22.5 28.05 22.5 28.5Z" fill="#ECD6BE"/>
<path d="M43.5 40.5C43.5 40.95 43.35 41.25 43.05 41.55C42.45 42.15 41.55 42.15 40.95 41.55L30 30.6L19.05 41.55C18.45 42.15 17.55 42.15 16.95 41.55C16.35 40.95 16.35 40.05 16.95 39.45L28.95 27.45C29.55 26.85 30.45 26.85 31.05 27.45L43.05 39.45C43.35 39.75 43.5 40.05 43.5 40.5Z" fill="#ECD6BE"/>
</g>
<defs>
<clipPath id="clip0_1_123">
<rect width="60" height="60" fill="white" transform="translate(0 60) rotate(-90)"/>
</clipPath>
</defs>
</svg>
