<svg width="50" height="50" viewBox="0 0 50 50" fill="none" xmlns="http://www.w3.org/2000/svg">
<path d="M32.0965 23.815C33.2635 23.815 34.329 24.466 34.9455 25.557C35.0735 25.783 35.3085 25.91 35.5505 25.91C36.065 25.923 36.424 25.3185 36.1545 24.873C35.3005 23.3635 33.7455 22.426 32.096 22.426C25.7925 22.635 25.834 32.289 32.096 32.534C34.752 32.534 36.8325 30.314 36.8325 27.48C36.816 26.566 35.459 26.5675 35.443 27.48C35.443 29.535 33.973 31.1445 32.0955 31.1445C27.679 30.988 27.6495 23.945 32.0965 23.815Z" fill="#ECD6BE"/>
<path d="M22.3685 27.4911C22.474 24.8426 20.294 22.3831 17.6315 22.4256C11.3275 22.6351 11.37 32.2891 17.6315 32.5331C20.288 32.5336 22.3685 30.3136 22.3685 27.4911ZM14.2845 27.4796C14.206 24.3601 17.7905 22.5941 19.9405 24.7981C22.093 26.9096 20.7005 31.2081 17.6315 31.1446C15.7865 31.1441 14.2845 29.5006 14.2845 27.4796Z" fill="#ECD6BE"/>
<path d="M43.047 12.281C37.615 7.84654 30.9855 7.44504 30.8215 8.03954L30.2665 8.67354C29.932 9.03454 30.117 9.66804 30.59 9.79604C30.927 9.89704 31.254 10.0005 31.5725 10.106C26.8785 9.13954 22.0175 9.33054 17.329 10.255C17.9455 10.042 18.5985 9.83604 19.288 9.64054C19.761 9.52354 19.9545 8.89054 19.632 8.52704C19.4265 8.30704 19.105 7.75854 18.717 7.80204C18.707 7.76054 12.3295 7.84654 6.99802 12.2805C6.95902 12.351 6.02652 14.038 4.90802 16.8925C4.59502 17.754 5.85002 18.241 6.20152 17.3995C7.11202 15.076 7.90802 13.526 8.14302 13.0845C10.2635 11.532 12.341 10.598 14.0845 10.0365C10.1885 11.7705 8.33502 13.525 8.23302 13.6235C7.66002 14.1755 8.34902 15.117 9.04752 14.7335C18.5165 9.68654 30.842 9.46204 40.327 14.7355C41.0115 15.123 41.724 14.16 41.1345 13.62C41.0235 13.5145 38.761 11.402 34.0185 9.51704C36.0255 9.93654 38.932 10.895 41.9005 13.0835C42.539 14.2915 47.39 23.8485 47.451 35.3085C46.6695 36.4195 43.3825 40.417 36.373 40.7605C36.032 40.3515 35.3385 39.518 34.629 38.6525C39.283 37.0315 41.1265 34.118 41.2075 33.9865C41.594 33.3665 40.843 32.633 40.234 33.042C31.306 38.914 19.0355 38.755 10.1035 33.0525C9.52052 32.613 8.71152 33.373 9.11202 33.983C9.19002 34.1115 10.9635 36.9575 15.4765 38.6045C14.749 39.507 14.0235 40.38 13.6725 40.801C9.39802 40.745 4.60602 38.4 2.59402 35.3215C2.61802 30.3265 3.52852 25.132 5.29952 19.8785C5.58402 19.0135 4.28502 18.5725 3.98352 19.4345C2.18852 25.014 0.989022 30.5695 1.29852 35.875C1.44252 36.1215 4.92502 41.917 13.9635 42.203C14.1755 42.21 14.3805 42.119 14.517 41.956C14.532 41.9385 16.0045 40.187 17.1865 38.69C17.4925 38.323 17.299 37.7185 16.84 37.594C19.1135 38.343 26.885 39.772 33.0225 37.746C32.7145 37.968 32.6585 38.447 32.904 38.7365C34.0825 40.19 35.5125 41.8985 35.5265 41.9155C35.664 42.079 35.852 42.1705 36.0815 42.164C44.284 41.904 48.0035 36.9845 48.702 35.942C49.3535 23.7655 43.105 12.435 43.047 12.281Z" fill="#ECD6BE"/>
</svg>
