<svg width="50" height="50" viewBox="0 0 50 50" fill="none" xmlns="http://www.w3.org/2000/svg">
<path d="M47.7645 13.6609C47.171 11.4139 45.4115 9.64444 43.1795 9.04394C40.155 8.22844 30.167 8.08044 26.0115 8.05444C25.057 8.07544 25.0545 9.48344 26.007 9.50844C29.204 9.52844 39.862 9.65494 42.8015 10.4479C44.5335 10.9139 45.8955 12.2874 46.359 14.0319C47.285 17.5129 47.296 24.9239 47.296 24.9984C47.296 25.0729 47.2845 32.4859 46.358 35.9669C45.895 37.7104 44.532 39.0829 42.801 39.5484C39.343 40.4804 25.143 40.4914 25 40.4914C24.857 40.4914 10.657 40.4804 7.199 39.5479C5.468 39.0819 4.105 37.7094 3.642 35.9659C2.715 32.4854 2.704 25.0724 2.704 24.9979C2.704 24.9234 2.715 17.5104 3.642 14.0294C4.105 12.2859 5.468 10.9134 7.1995 10.4479C9.893 9.72144 19.123 9.55494 22.966 9.51694C23.9215 9.49594 23.9055 8.06644 22.952 8.06294C18.109 8.11094 9.5735 8.30194 6.8215 9.04394C4.5895 9.64444 2.8325 11.4119 2.237 13.6564C1.261 17.3199 1.25 24.6864 1.25 24.9979C1.25 25.3094 1.261 32.6759 2.2365 36.3394C2.8325 38.5844 4.5895 40.3519 6.8205 40.9519C10.4625 41.9339 24.4075 41.9454 24.9995 41.9454C25.591 41.9454 39.5365 41.9339 43.1785 40.9519C45.41 40.3519 47.167 38.5844 47.7625 36.3399C48.738 32.6759 48.7495 25.3094 48.7495 24.9979C48.75 24.6864 48.7385 17.3264 47.7645 13.6609Z" fill="#ECD6BE"/>
<path d="M19.925 17.5229C19.701 17.6529 19.5635 17.8924 19.5635 18.1514V31.8444C19.5555 32.2354 19.9015 32.5799 20.2905 32.5714C20.4145 32.5714 20.5385 32.5399 20.65 32.4764L32.6845 25.6304C33.1665 25.3754 33.1695 24.6219 32.685 24.3664L20.65 17.5194C20.4255 17.3919 20.149 17.3929 19.925 17.5229ZM21.0175 19.4014L30.855 24.9979L21.0175 30.5939V19.4014Z" fill="#ECD6BE"/>
</svg>
