<svg width="50" height="50" viewBox="0 0 50 50" fill="none" xmlns="http://www.w3.org/2000/svg">
<path d="M45.985 12.9715C45.8385 12.834 45.6455 12.7635 45.44 12.776C42.6045 12.961 40.328 12.3775 38.491 10.9915C36.005 9.115 34.816 6.405 34.517 1.929C34.491 1.5475 34.1735 1.25 33.79 1.25H26.2775C25.8755 1.25 25.5495 1.576 25.5495 1.978C25.553 11.759 25.5575 20.336 25.5315 30.629C25.546 31.581 26.967 31.595 26.988 30.633C27.0145 20.55 27.007 12.254 27.006 2.7065H33.116C33.414 8.9205 37.375 14.536 44.759 14.263V20.699C41.6455 20.485 38.6665 20.339 35.819 18.8435C35.0685 18.6055 33.4745 17.3615 33.1895 18.7555C33.1095 19.392 33.2835 29.7605 33.2505 33.0615C32.8555 50.916 7.66803 52.648 5.30103 34.448C4.59403 27.228 10.148 20.3945 17.4295 19.5255C18.3845 19.394 18.2035 17.9805 17.257 18.0795C9.20803 19.0395 3.06903 26.6005 3.85203 34.5905C6.46453 54.6425 34.2705 52.738 34.707 33.0455C34.739 29.4265 34.6005 22.4805 34.628 19.9075C36.013 20.5195 37.369 21.181 38.812 21.4925C41.0055 21.968 43.2125 22.0005 45.4145 22.222C45.8315 22.273 46.2245 21.916 46.2155 21.4975V13.504C46.2155 13.302 46.132 13.1095 45.985 12.9715Z" fill="#ECD6BE"/>
<path d="M11.463 33.3764C11.594 41.8934 23.279 44.2614 26.516 36.2384C26.66 35.8629 26.472 35.4419 26.0965 35.2984C25.7205 35.1539 25.3 35.3419 25.156 35.7179C22.537 42.2234 13.028 40.3079 12.9195 33.3724C12.911 30.2389 15.08 27.6044 18.077 27.1074C19.16 26.9309 20.428 27.0924 21.583 27.0869C21.9855 27.0869 22.311 26.7609 22.311 26.3589V18.7789C22.2965 17.8289 20.8715 17.8159 20.8545 18.7789V25.6159C15.9255 24.9279 11.482 28.1474 11.463 33.3764Z" fill="#ECD6BE"/>
</svg>
