<svg width="50" height="50" viewBox="0 0 50 50" fill="none" xmlns="http://www.w3.org/2000/svg">
<path d="M47.738 2.423C47.738 2.323 47.7295 2.222 47.716 2.09L47.6985 1.9005C47.6685 1.5415 47.3685 1.265 47.008 1.265C33.67 1.2685 20.1465 1.2665 6.82549 1.25C5.90649 1.2485 5.38099 1.613 5.07699 2.47C4.19299 4.97 3.21799 7.478 2.26099 9.91451V41.905C2.26099 42.2865 2.56949 42.5965 2.95099 42.598C6.39099 42.6195 9.90099 42.5995 13.333 42.655V48.057C13.333 48.4395 13.6435 48.75 14.026 48.75H20.0235C20.2095 48.75 20.3875 48.675 20.518 48.5425C22.1 46.9315 23.7195 45.3855 25.2445 43.6855C25.9895 42.854 26.71 42.5545 27.825 42.6065C30.0295 42.715 32.2155 42.6625 34.329 42.612C34.9445 42.597 35.6385 42.31 36.0575 41.8975C39.2925 38.7065 42.7845 35.2195 47.046 30.924C47.371 30.597 47.7175 30.0455 47.7195 29.477C47.7445 20.429 47.739 11.3525 47.738 2.423ZM46.3335 29.473C46.333 29.5535 46.2245 29.7845 46.0625 29.9475C41.804 34.24 38.316 37.7235 35.0845 40.9105C34.914 41.0785 34.5605 41.22 34.2955 41.2265C32.207 41.277 30.0475 41.329 27.8935 41.223C26.3705 41.1445 25.2335 41.622 24.212 42.761C22.779 44.358 21.2315 45.845 19.733 47.3645H14.719V42.0115C14.719 41.6455 14.4345 41.3425 14.0695 41.32C11.1055 41.158 8.13999 41.2695 5.17299 41.22L3.64699 41.2145V10.085C3.88249 9.66451 4.28249 8.599 4.45049 8.134C5.09599 6.4355 5.76349 4.679 6.38299 2.9345C6.48749 2.641 6.48399 2.6395 6.82399 2.636C19.9385 2.6535 33.223 2.653 46.3525 2.651C46.353 11.5025 46.3585 20.5035 46.3335 29.473Z" fill="#ECD6BE"/>
<path d="M43.815 16.3001L43.8155 8.80656C43.7975 7.91056 42.451 7.88256 42.4295 8.80656C42.4135 15.4096 42.435 19.8821 42.4405 27.2466C42.441 27.6021 42.362 27.8001 42.126 28.0316C40.0975 30.0266 38.1235 32.0416 36.0705 34.0326C35.9095 34.1886 35.5815 34.3231 35.3545 34.3256C32.153 34.3646 28.95 34.3301 25.7485 34.3696C25.175 34.3766 24.5075 34.6521 24.0875 35.0546C22.572 36.5081 21.119 37.9866 19.653 39.4546C19.647 38.2316 19.6385 36.9796 19.6615 35.7421C19.7345 34.8811 19.0945 34.2756 18.2505 34.3376C17.34 34.3606 17.3525 35.7301 18.276 35.7231C18.2485 37.1646 18.2655 38.6121 18.27 40.0361C18.3135 40.6016 18.1695 41.6956 19.0245 41.7056C19.3285 41.7366 19.605 41.4176 19.809 41.2321C21.589 39.5276 23.25 37.7606 25.0465 36.0551C25.213 35.8956 25.542 35.7581 25.7655 35.7556C28.9665 35.7161 32.17 35.7506 35.3715 35.7116C35.9515 35.7046 36.6195 35.4296 37.0345 35.0276C38.2245 33.8736 39.4155 32.6841 40.567 31.5341C41.4085 30.6936 42.2495 29.8531 43.0965 29.0201C43.6015 28.5241 43.827 27.9761 43.8255 27.2436C43.814 22.0901 43.8145 19.9846 43.815 16.3001Z" fill="#ECD6BE"/>
<path d="M14.8605 34.3469H10.703V6.57544L42.12 6.57594C42.5025 6.57594 42.813 6.26544 42.813 5.88294C42.813 5.50044 42.5025 5.18994 42.12 5.18994H10.01C9.62752 5.18994 9.31702 5.50044 9.31702 5.88294V35.0399C9.31702 35.4224 9.62752 35.7329 10.01 35.7329H14.8605C15.776 35.7104 15.7685 34.3654 14.8605 34.3469Z" fill="#ECD6BE"/>
<path d="M35.2025 13.2875C33.9395 13.2955 32.9585 13.245 32.7 13.297C32.219 13.4215 31.4075 13.8705 31.414 14.762C31.426 16.4535 31.435 19.083 31.442 21.3635C31.4475 22.9025 31.452 24.2835 31.4565 25.111C31.459 25.509 31.616 25.8815 31.8995 26.1605C32.73 26.941 34.1855 26.445 35.205 26.6065C36.1295 26.7055 36.777 26.0355 36.7035 25.1235C36.6855 22.675 36.687 20.2265 36.6885 17.7775L36.6895 14.7605C36.6865 13.951 36.02 13.29 35.2025 13.2875ZM32.872 25.174C32.771 22.516 32.852 17.313 32.7905 14.785C32.813 14.75 32.9005 14.6955 32.983 14.6615C33.3195 14.664 34.334 14.67 35.198 14.673C35.254 14.673 35.3035 14.7165 35.3035 14.7705C35.3015 18.192 35.297 21.8165 35.316 25.2235C34.5085 25.159 33.668 25.2575 32.872 25.174Z" fill="#ECD6BE"/>
<path d="M25.2999 13.607C25.0689 13.3805 24.7389 13.267 24.3424 13.283C23.5504 13.305 22.6834 13.306 21.6884 13.284C20.8029 13.242 20.3519 13.9385 20.4019 14.5705C20.4114 18.1545 20.4119 21.7385 20.4029 25.322C20.3549 26.0655 20.9304 26.661 21.6994 26.6C22.5144 26.58 23.4414 26.5685 24.3214 26.609C24.5599 26.609 24.9714 26.5685 25.2819 26.2675C25.8244 25.6985 25.8624 24.508 24.9639 24.4665C24.5774 24.466 24.2649 24.784 24.2709 25.1705C23.5574 25.2795 22.5244 25.1445 21.7889 25.212C21.7974 21.6985 21.7969 18.185 21.7879 14.6725C22.7024 14.6905 23.5164 14.6905 24.2654 14.671C24.2569 15.955 24.2584 17.2385 24.2594 18.5225L24.2604 22.977C24.2749 23.8865 25.6309 23.8885 25.6464 22.977L25.6454 18.521C25.6439 17.227 25.6424 15.933 25.6519 14.639C25.6534 14.345 25.6194 13.919 25.2999 13.607Z" fill="#ECD6BE"/>
</svg>
