<svg width="155" height="51" viewBox="0 0 155 51" fill="none" xmlns="http://www.w3.org/2000/svg">
<path d="M31.5 3.5L1 5.5V22V37V44.5V48H9.5L14.5 47.5H19.5L22 49H31.5H40H55.5H82H102.5H123.5L154 50V47V37L152 30.5V22L154 12V3.5H146.5L142.5 1H129H115.5L102.5 3.5H86H61.5H46.5H31.5Z" fill="#2E5945"/>
<path d="M31.5 3.5L1 5.5V22V37V44.5V48H9.5L14.5 47.5H19.5L22 49H31.5H40H55.5H82H102.5H123.5L154 50V47V37L152 30.5V22L154 12V3.5H146.5L142.5 1H129H115.5L102.5 3.5H86H61.5H46.5H31.5Z" fill="url(#paint0_diamond_1_79)" fill-opacity="0.2"/>
<path d="M31.5 3.5L1 5.5V22V37V44.5V48H9.5L14.5 47.5H19.5L22 49H31.5H40H55.5H82H102.5H123.5L154 50V47V37L152 30.5V22L154 12V3.5H146.5L142.5 1H129H115.5L102.5 3.5H86H61.5H46.5H31.5Z" stroke="#2E5945"/>
<defs>
<radialGradient id="paint0_diamond_1_79" cx="0" cy="0" r="1" gradientUnits="userSpaceOnUse" gradientTransform="translate(77.5 25.5) rotate(79.0772) scale(29.0259 90.6317)">
<stop offset="0.388542" stop-color="#ECD6BE"/>
<stop offset="0.83125" stop-color="#18474A"/>
</radialGradient>
</defs>
</svg>
