<svg width="1202" height="362" viewBox="0 0 1202 362" fill="none" xmlns="http://www.w3.org/2000/svg">
<path d="M240.216 19.3673L1 34.0612V155.286V265.49V320.592V346.306H67.6667L106.882 342.633H146.098L165.706 353.653H240.216H306.882H428.451H636.294H797.078H961.784L1201 361V338.959V265.49L1185.31 217.735V155.286L1201 81.8163V19.3673H1142.18L1110.8 1H1004.92H899.039L797.078 19.3673H667.667H475.51H357.863H240.216Z" fill="#2E5945" fill-opacity="0.2"/>
<path d="M240.216 19.3673L1 34.0612V155.286V265.49V320.592V346.306H67.6667L106.882 342.633H146.098L165.706 353.653H240.216H306.882H428.451H636.294H797.078H961.784L1201 361V338.959V265.49L1185.31 217.735V155.286L1201 81.8163V19.3673H1142.18L1110.8 1H1004.92H899.039L797.078 19.3673H667.667H475.51H357.863H240.216Z" fill="url(#paint0_diamond_0_1)" fill-opacity="0.2"/>
<path d="M240.216 19.3673L1 34.0612V155.286V265.49V320.592V346.306H67.6667L106.882 342.633H146.098L165.706 353.653H240.216H306.882H428.451H636.294H797.078H961.784L1201 361V338.959V265.49L1185.31 217.735V155.286L1201 81.8163V19.3673H1142.18L1110.8 1H1004.92H899.039L797.078 19.3673H667.667H475.51H357.863H240.216Z" stroke="#2E5945"/>
<defs>
<radialGradient id="paint0_diamond_0_1" cx="0" cy="0" r="1" gradientUnits="userSpaceOnUse" gradientTransform="translate(601 181) rotate(78.359) scale(213.785 709.062)">
<stop offset="0.388542" stop-color="#ECD6BE"/>
<stop offset="0.83125" stop-color="#18474A"/>
</radialGradient>
</defs>
</svg>
