<svg width="1440" height="151" viewBox="0 0 1440 151" fill="none" xmlns="http://www.w3.org/2000/svg">
<path d="M707.289 5.68755L731.194 5.68755L732.332 9.78912L731.953 14.4766L733.85 22.6797L737.265 14.4766L741.818 10.3751L742.577 9.78912L747.13 14.4766L750.166 14.4766L752.063 9.78912L758.514 9.78912L760.791 6.85943L764.206 5.68756L769.518 4.51568L774.451 2.75787L813.913 2.75787L834.024 6.2735L843.51 14.4766L866.277 14.4766L868.933 6.2735L880.696 6.2735L892.459 3.34382L920.158 3.34382L933.818 1.00007L938.372 6.27351L940.648 17.9922L947.099 3.34382L985.423 9.2032L1037.03 9.2032L1050.31 6.27352L1060.17 6.27352L1068.14 3.34383L1075.35 37.3282L1080.66 6.27352L1084.46 6.27352L1098.12 9.20321L1101.15 23.8516L1103.81 17.9923L1106.47 6.27352L1125.06 6.27352L1135.3 9.20321L1154.66 9.20321L1198.67 6.27353L1210.43 9.20321L1219.92 9.20322L1225.99 15.6485L1229.79 12.7188L1234.34 3.34384L1290.5 1.0001L1290.5 12.7188L1292.02 9.20322L1298.47 6.27353L1307.19 9.20322L1309.09 22.0938L1312.13 15.6485L1312.13 9.20322L1315.16 6.27354L1327.3 9.20322L1342.86 15.6485L1346.28 9.20322L1362.59 9.20323L1362.97 12.7188L1370.56 6.27354L1402.81 6.27354L1440 9.20323L1440 10.3751L1440 151L0 151L1.45279e-05 10.9609L60.332 5.10157L67.1621 8.61719L73.9922 10.9609L78.166 8.61719L82.7194 8.61719L87.2728 20.9219L92.9645 8.6172L97.1384 5.10157L143.431 1.00001L150.64 5.10157L150.64 10.9609L154.055 8.6172L168.474 10.961L171.131 23.2656L173.787 8.6172L190.103 10.961L203.763 15.6484L207.178 8.6172L223.494 8.6172L223.494 15.6484L231.463 5.10158L357.059 8.61721L362.751 13.3047L369.961 13.3047L379.447 13.3047L380.964 8.61722L383.241 8.61722L394.245 8.61722C396.648 8.61722 401.455 9.55472 401.455 13.3047C401.455 17.0547 403.225 17.9922 404.111 17.9922L408.285 26.7813L409.423 25.0235L410.941 13.3047L412.838 8.61722L448.885 8.61722L476.585 8.61722C477.597 11.1563 480.076 16.586 481.897 17.9922C482.691 18.6049 482.937 19.3141 482.899 19.9839L486.071 13.3047L498.214 8.61722L544.885 8.61723L567.273 13.3047L584.727 13.3047L607.494 13.3047L611.668 22.0938L614.324 25.0235L623.431 8.61723L634.055 8.61723L665.17 8.61724L707.289 5.68755Z" fill="#2E5945" stroke="#2E5945"/>
</svg>
